<mxfile host="app.diagrams.net" agent="Mozilla/5.0 (Windows NT 10.0; Win64; x64) AppleWebKit/537.36 (KHTML, like Gecko) Chrome/130.0.0.0 Safari/537.36" version="24.8.4">
  <diagram id="C5RBs43oDa-KdzZeNtuy" name="Page-1">
    <mxGraphModel dx="2390" dy="1230" grid="1" gridSize="10" guides="1" tooltips="1" connect="1" arrows="1" fold="1" page="1" pageScale="1" pageWidth="827" pageHeight="1169" math="0" shadow="0">
      <root>
        <mxCell id="WIyWlLk6GJQsqaUBKTNV-0" />
        <mxCell id="WIyWlLk6GJQsqaUBKTNV-1" parent="WIyWlLk6GJQsqaUBKTNV-0" />
        <mxCell id="EcIhPKk2g2EHWNbsYNkr-4" style="edgeStyle=orthogonalEdgeStyle;rounded=0;orthogonalLoop=1;jettySize=auto;html=1;exitX=0.5;exitY=1;exitDx=0;exitDy=0;" edge="1" parent="WIyWlLk6GJQsqaUBKTNV-1" source="vQw6qridugHL2fAcngwt-1" target="EcIhPKk2g2EHWNbsYNkr-1">
          <mxGeometry relative="1" as="geometry" />
        </mxCell>
        <mxCell id="EcIhPKk2g2EHWNbsYNkr-3" value="" style="endArrow=classic;html=1;rounded=0;entryX=0.75;entryY=0;entryDx=0;entryDy=0;" edge="1" parent="WIyWlLk6GJQsqaUBKTNV-1" source="EcIhPKk2g2EHWNbsYNkr-1" target="EcIhPKk2g2EHWNbsYNkr-29">
          <mxGeometry width="50" height="50" relative="1" as="geometry">
            <mxPoint x="350" y="410" as="sourcePoint" />
            <mxPoint x="400" y="360" as="targetPoint" />
          </mxGeometry>
        </mxCell>
        <mxCell id="EcIhPKk2g2EHWNbsYNkr-15" value="&lt;font face=&quot;Georgia&quot; style=&quot;font-size: 18px;&quot;&gt;Text output is converted to speech using text-to-speech engine&lt;/font&gt;" style="rounded=1;whiteSpace=wrap;html=1;" vertex="1" parent="WIyWlLk6GJQsqaUBKTNV-1">
          <mxGeometry x="1400" y="690" width="226" height="130" as="geometry" />
        </mxCell>
        <mxCell id="EcIhPKk2g2EHWNbsYNkr-17" value="&lt;font face=&quot;Georgia&quot; style=&quot;font-size: 18px;&quot;&gt;After the session ends or refreshes, all stored inputs are deleted from the node&lt;/font&gt;" style="rounded=1;whiteSpace=wrap;html=1;" vertex="1" parent="WIyWlLk6GJQsqaUBKTNV-1">
          <mxGeometry x="1370" y="440" width="240" height="145" as="geometry" />
        </mxCell>
        <mxCell id="EcIhPKk2g2EHWNbsYNkr-18" value="" style="endArrow=classic;html=1;rounded=0;exitX=0.5;exitY=0;exitDx=0;exitDy=0;entryX=0.5;entryY=1;entryDx=0;entryDy=0;" edge="1" parent="WIyWlLk6GJQsqaUBKTNV-1" source="EcIhPKk2g2EHWNbsYNkr-15" target="EcIhPKk2g2EHWNbsYNkr-17">
          <mxGeometry width="50" height="50" relative="1" as="geometry">
            <mxPoint x="420" y="740" as="sourcePoint" />
            <mxPoint x="446" y="650" as="targetPoint" />
          </mxGeometry>
        </mxCell>
        <mxCell id="EcIhPKk2g2EHWNbsYNkr-19" value="&lt;font face=&quot;Georgia&quot; style=&quot;font-size: 18px;&quot;&gt;Application resets and starts from the beginning&lt;/font&gt;" style="rounded=1;whiteSpace=wrap;html=1;" vertex="1" parent="WIyWlLk6GJQsqaUBKTNV-1">
          <mxGeometry x="1400" y="250" width="210" height="100" as="geometry" />
        </mxCell>
        <mxCell id="EcIhPKk2g2EHWNbsYNkr-20" value="" style="endArrow=classic;html=1;rounded=0;exitX=0.5;exitY=0;exitDx=0;exitDy=0;entryX=0.5;entryY=1;entryDx=0;entryDy=0;" edge="1" parent="WIyWlLk6GJQsqaUBKTNV-1" source="EcIhPKk2g2EHWNbsYNkr-17" target="EcIhPKk2g2EHWNbsYNkr-19">
          <mxGeometry width="50" height="50" relative="1" as="geometry">
            <mxPoint x="457" y="770" as="sourcePoint" />
            <mxPoint x="456" y="660" as="targetPoint" />
          </mxGeometry>
        </mxCell>
        <mxCell id="EcIhPKk2g2EHWNbsYNkr-22" value="" style="endArrow=classic;html=1;rounded=0;entryX=0.406;entryY=0.983;entryDx=0;entryDy=0;entryPerimeter=0;exitX=0.5;exitY=0;exitDx=0;exitDy=0;" edge="1" parent="WIyWlLk6GJQsqaUBKTNV-1" source="EcIhPKk2g2EHWNbsYNkr-19" target="EcIhPKk2g2EHWNbsYNkr-21">
          <mxGeometry width="50" height="50" relative="1" as="geometry">
            <mxPoint x="430" y="170" as="sourcePoint" />
            <mxPoint x="480" y="120" as="targetPoint" />
          </mxGeometry>
        </mxCell>
        <mxCell id="EcIhPKk2g2EHWNbsYNkr-58" style="edgeStyle=orthogonalEdgeStyle;rounded=0;orthogonalLoop=1;jettySize=auto;html=1;exitX=0.5;exitY=1;exitDx=0;exitDy=0;" edge="1" parent="WIyWlLk6GJQsqaUBKTNV-1" source="EcIhPKk2g2EHWNbsYNkr-29" target="EcIhPKk2g2EHWNbsYNkr-57">
          <mxGeometry relative="1" as="geometry">
            <Array as="points">
              <mxPoint x="100" y="620" />
              <mxPoint x="610" y="620" />
            </Array>
          </mxGeometry>
        </mxCell>
        <mxCell id="EcIhPKk2g2EHWNbsYNkr-60" style="edgeStyle=orthogonalEdgeStyle;rounded=0;orthogonalLoop=1;jettySize=auto;html=1;exitX=1;exitY=0.5;exitDx=0;exitDy=0;entryX=0;entryY=1;entryDx=0;entryDy=0;" edge="1" parent="WIyWlLk6GJQsqaUBKTNV-1" source="EcIhPKk2g2EHWNbsYNkr-29" target="EcIhPKk2g2EHWNbsYNkr-59">
          <mxGeometry relative="1" as="geometry" />
        </mxCell>
        <mxCell id="EcIhPKk2g2EHWNbsYNkr-36" value="WAKE WORD&lt;br&gt;(OPTIONAL)" style="shape=hexagon;perimeter=hexagonPerimeter2;whiteSpace=wrap;html=1;fixedSize=1;fillColor=#fad9d5;strokeColor=#ae4132;" vertex="1" parent="WIyWlLk6GJQsqaUBKTNV-1">
          <mxGeometry x="185" y="110" width="110" height="75" as="geometry" />
        </mxCell>
        <mxCell id="EcIhPKk2g2EHWNbsYNkr-37" value="" style="endArrow=classic;html=1;rounded=0;entryX=0.5;entryY=0;entryDx=0;entryDy=0;exitX=0.5;exitY=1;exitDx=0;exitDy=0;" edge="1" parent="WIyWlLk6GJQsqaUBKTNV-1" source="EcIhPKk2g2EHWNbsYNkr-23" target="EcIhPKk2g2EHWNbsYNkr-36">
          <mxGeometry width="50" height="50" relative="1" as="geometry">
            <mxPoint x="350" y="390" as="sourcePoint" />
            <mxPoint x="400" y="340" as="targetPoint" />
          </mxGeometry>
        </mxCell>
        <mxCell id="EcIhPKk2g2EHWNbsYNkr-38" value="" style="endArrow=classic;html=1;rounded=0;exitX=0.5;exitY=1;exitDx=0;exitDy=0;" edge="1" parent="WIyWlLk6GJQsqaUBKTNV-1" source="EcIhPKk2g2EHWNbsYNkr-36">
          <mxGeometry width="50" height="50" relative="1" as="geometry">
            <mxPoint x="350" y="390" as="sourcePoint" />
            <mxPoint x="100" y="210" as="targetPoint" />
          </mxGeometry>
        </mxCell>
        <mxCell id="EcIhPKk2g2EHWNbsYNkr-44" value="&lt;font style=&quot;font-size: 18px;&quot;&gt;screenshot&lt;/font&gt;" style="rounded=1;whiteSpace=wrap;html=1;fillColor=#dae8fc;strokeColor=#6c8ebf;" vertex="1" parent="WIyWlLk6GJQsqaUBKTNV-1">
          <mxGeometry x="1030" y="390" width="200" height="140" as="geometry" />
        </mxCell>
        <mxCell id="EcIhPKk2g2EHWNbsYNkr-45" value="&lt;font style=&quot;font-size: 18px;&quot;&gt;application reads the text that is copied&amp;nbsp;&lt;/font&gt;" style="rounded=1;whiteSpace=wrap;html=1;fillColor=#dae8fc;strokeColor=#6c8ebf;" vertex="1" parent="WIyWlLk6GJQsqaUBKTNV-1">
          <mxGeometry x="1050" y="40" width="160" height="120" as="geometry" />
        </mxCell>
        <mxCell id="EcIhPKk2g2EHWNbsYNkr-47" value="" style="endArrow=classic;html=1;rounded=0;exitX=0.5;exitY=0;exitDx=0;exitDy=0;entryX=0;entryY=0.25;entryDx=0;entryDy=0;exitPerimeter=0;" edge="1" parent="WIyWlLk6GJQsqaUBKTNV-1" source="EcIhPKk2g2EHWNbsYNkr-51" target="EcIhPKk2g2EHWNbsYNkr-45">
          <mxGeometry width="50" height="50" relative="1" as="geometry">
            <mxPoint x="880" y="130" as="sourcePoint" />
            <mxPoint x="930" y="80" as="targetPoint" />
          </mxGeometry>
        </mxCell>
        <mxCell id="EcIhPKk2g2EHWNbsYNkr-49" value="" style="endArrow=classic;html=1;rounded=0;exitX=0.5;exitY=1;exitDx=0;exitDy=0;entryX=0;entryY=0.5;entryDx=0;entryDy=0;exitPerimeter=0;" edge="1" parent="WIyWlLk6GJQsqaUBKTNV-1" source="EcIhPKk2g2EHWNbsYNkr-51" target="EcIhPKk2g2EHWNbsYNkr-44">
          <mxGeometry width="50" height="50" relative="1" as="geometry">
            <mxPoint x="880" y="200" as="sourcePoint" />
            <mxPoint x="930" y="150" as="targetPoint" />
          </mxGeometry>
        </mxCell>
        <mxCell id="EcIhPKk2g2EHWNbsYNkr-50" value="" style="endArrow=classic;html=1;rounded=0;exitX=1;exitY=0;exitDx=0;exitDy=0;entryX=0.5;entryY=1;entryDx=0;entryDy=0;" edge="1" parent="WIyWlLk6GJQsqaUBKTNV-1" source="EcIhPKk2g2EHWNbsYNkr-65" target="EcIhPKk2g2EHWNbsYNkr-15">
          <mxGeometry width="50" height="50" relative="1" as="geometry">
            <mxPoint x="1020" y="1045" as="sourcePoint" />
            <mxPoint x="380" y="970" as="targetPoint" />
          </mxGeometry>
        </mxCell>
        <mxCell id="EcIhPKk2g2EHWNbsYNkr-75" style="edgeStyle=orthogonalEdgeStyle;rounded=0;orthogonalLoop=1;jettySize=auto;html=1;exitX=1;exitY=0;exitDx=0;exitDy=15;exitPerimeter=0;entryX=1;entryY=0.75;entryDx=0;entryDy=0;" edge="1" parent="WIyWlLk6GJQsqaUBKTNV-1" source="EcIhPKk2g2EHWNbsYNkr-51" target="EcIhPKk2g2EHWNbsYNkr-33">
          <mxGeometry relative="1" as="geometry">
            <Array as="points">
              <mxPoint x="1340" y="355" />
              <mxPoint x="1340" y="853" />
            </Array>
          </mxGeometry>
        </mxCell>
        <mxCell id="EcIhPKk2g2EHWNbsYNkr-51" value="&lt;font style=&quot;font-size: 18px;&quot;&gt;node2&lt;/font&gt;" style="shape=cylinder3;whiteSpace=wrap;html=1;boundedLbl=1;backgroundOutline=1;size=15;fillColor=#60a917;fontColor=#ffffff;strokeColor=#2D7600;" vertex="1" parent="WIyWlLk6GJQsqaUBKTNV-1">
          <mxGeometry x="770" y="340" width="140" height="110" as="geometry" />
        </mxCell>
        <mxCell id="EcIhPKk2g2EHWNbsYNkr-52" value="" style="endArrow=classic;html=1;rounded=0;exitX=1;exitY=0.5;exitDx=0;exitDy=0;entryX=0;entryY=0.5;entryDx=0;entryDy=0;entryPerimeter=0;" edge="1" parent="WIyWlLk6GJQsqaUBKTNV-1" source="EcIhPKk2g2EHWNbsYNkr-59" target="EcIhPKk2g2EHWNbsYNkr-51">
          <mxGeometry width="50" height="50" relative="1" as="geometry">
            <mxPoint x="870" y="200" as="sourcePoint" />
            <mxPoint x="930" y="150" as="targetPoint" />
          </mxGeometry>
        </mxCell>
        <mxCell id="EcIhPKk2g2EHWNbsYNkr-70" style="edgeStyle=orthogonalEdgeStyle;rounded=0;orthogonalLoop=1;jettySize=auto;html=1;exitX=0.5;exitY=1;exitDx=0;exitDy=0;exitPerimeter=0;" edge="1" parent="WIyWlLk6GJQsqaUBKTNV-1" source="EcIhPKk2g2EHWNbsYNkr-53" target="EcIhPKk2g2EHWNbsYNkr-65">
          <mxGeometry relative="1" as="geometry" />
        </mxCell>
        <mxCell id="EcIhPKk2g2EHWNbsYNkr-76" style="edgeStyle=orthogonalEdgeStyle;rounded=0;orthogonalLoop=1;jettySize=auto;html=1;exitX=1;exitY=0.5;exitDx=0;exitDy=0;entryX=1;entryY=0.5;entryDx=0;entryDy=0;entryPerimeter=0;" edge="1" parent="WIyWlLk6GJQsqaUBKTNV-1" source="EcIhPKk2g2EHWNbsYNkr-45" target="EcIhPKk2g2EHWNbsYNkr-53">
          <mxGeometry relative="1" as="geometry">
            <Array as="points">
              <mxPoint x="1290" y="100" />
              <mxPoint x="1290" y="693" />
            </Array>
          </mxGeometry>
        </mxCell>
        <mxCell id="EcIhPKk2g2EHWNbsYNkr-53" value="&lt;font style=&quot;font-size: 18px;&quot;&gt;node3&lt;/font&gt;" style="shape=cylinder3;whiteSpace=wrap;html=1;boundedLbl=1;backgroundOutline=1;size=15;fillColor=#60a917;fontColor=#ffffff;strokeColor=#2D7600;" vertex="1" parent="WIyWlLk6GJQsqaUBKTNV-1">
          <mxGeometry x="660" y="650" width="210" height="85" as="geometry" />
        </mxCell>
        <mxCell id="EcIhPKk2g2EHWNbsYNkr-56" style="edgeStyle=orthogonalEdgeStyle;rounded=0;orthogonalLoop=1;jettySize=auto;html=1;exitX=1;exitY=0.5;exitDx=0;exitDy=0;entryX=0;entryY=0;entryDx=0;entryDy=56.25;entryPerimeter=0;" edge="1" parent="WIyWlLk6GJQsqaUBKTNV-1" source="EcIhPKk2g2EHWNbsYNkr-33" target="EcIhPKk2g2EHWNbsYNkr-53">
          <mxGeometry relative="1" as="geometry">
            <Array as="points">
              <mxPoint x="1230" y="810" />
              <mxPoint x="1230" y="755" />
              <mxPoint x="640" y="755" />
              <mxPoint x="640" y="706" />
            </Array>
          </mxGeometry>
        </mxCell>
        <mxCell id="EcIhPKk2g2EHWNbsYNkr-63" style="edgeStyle=orthogonalEdgeStyle;rounded=0;orthogonalLoop=1;jettySize=auto;html=1;exitX=0.5;exitY=1;exitDx=0;exitDy=0;exitPerimeter=0;entryX=0.5;entryY=0;entryDx=0;entryDy=0;" edge="1" parent="WIyWlLk6GJQsqaUBKTNV-1" source="EcIhPKk2g2EHWNbsYNkr-57" target="EcIhPKk2g2EHWNbsYNkr-62">
          <mxGeometry relative="1" as="geometry" />
        </mxCell>
        <mxCell id="EcIhPKk2g2EHWNbsYNkr-57" value="&lt;font style=&quot;font-size: 18px;&quot;&gt;node1&lt;/font&gt;" style="shape=cylinder3;whiteSpace=wrap;html=1;boundedLbl=1;backgroundOutline=1;size=15;fillColor=#60a917;fontColor=#ffffff;strokeColor=#2D7600;" vertex="1" parent="WIyWlLk6GJQsqaUBKTNV-1">
          <mxGeometry x="600" y="40" width="130" height="90" as="geometry" />
        </mxCell>
        <mxCell id="EcIhPKk2g2EHWNbsYNkr-59" value="&lt;div&gt;&lt;b&gt;&lt;font style=&quot;font-size: 18px;&quot;&gt;Lama3 &lt;/font&gt;&lt;/b&gt;&lt;br&gt;is used for query understanding&lt;/div&gt;&lt;div&gt;&lt;br&gt;&lt;/div&gt;" style="rhombus;whiteSpace=wrap;html=1;fillColor=#e1d5e7;strokeColor=#9673a6;" vertex="1" parent="WIyWlLk6GJQsqaUBKTNV-1">
          <mxGeometry x="420" y="120" width="150" height="160" as="geometry" />
        </mxCell>
        <mxCell id="EcIhPKk2g2EHWNbsYNkr-61" style="edgeStyle=orthogonalEdgeStyle;rounded=0;orthogonalLoop=1;jettySize=auto;html=1;exitX=0.5;exitY=1;exitDx=0;exitDy=0;entryX=1;entryY=0;entryDx=0;entryDy=15;entryPerimeter=0;" edge="1" parent="WIyWlLk6GJQsqaUBKTNV-1" source="EcIhPKk2g2EHWNbsYNkr-59" target="EcIhPKk2g2EHWNbsYNkr-57">
          <mxGeometry relative="1" as="geometry" />
        </mxCell>
        <mxCell id="EcIhPKk2g2EHWNbsYNkr-64" style="edgeStyle=orthogonalEdgeStyle;rounded=0;orthogonalLoop=1;jettySize=auto;html=1;exitX=0.5;exitY=1;exitDx=0;exitDy=0;entryX=1;entryY=1;entryDx=0;entryDy=0;" edge="1" parent="WIyWlLk6GJQsqaUBKTNV-1" source="EcIhPKk2g2EHWNbsYNkr-62" target="EcIhPKk2g2EHWNbsYNkr-15">
          <mxGeometry relative="1" as="geometry">
            <Array as="points">
              <mxPoint x="178" y="1150" />
              <mxPoint x="1626" y="1150" />
            </Array>
          </mxGeometry>
        </mxCell>
        <mxCell id="EcIhPKk2g2EHWNbsYNkr-62" value="&lt;b&gt;&lt;font style=&quot;font-size: 20px;&quot;&gt;TEXT MODEL&amp;nbsp;&lt;/font&gt;&lt;/b&gt;" style="rhombus;whiteSpace=wrap;html=1;fillColor=#e1d5e7;strokeColor=#9673a6;" vertex="1" parent="WIyWlLk6GJQsqaUBKTNV-1">
          <mxGeometry x="180" y="760" width="185" height="140" as="geometry" />
        </mxCell>
        <mxCell id="EcIhPKk2g2EHWNbsYNkr-67" value="" style="group;fillColor=#d80073;strokeColor=#A50040;fontColor=#ffffff;" vertex="1" connectable="0" parent="WIyWlLk6GJQsqaUBKTNV-1">
          <mxGeometry x="1440" y="21.5" width="160" height="88.5" as="geometry" />
        </mxCell>
        <mxCell id="EcIhPKk2g2EHWNbsYNkr-21" value="" style="shape=parallelogram;perimeter=parallelogramPerimeter;whiteSpace=wrap;html=1;fixedSize=1;fillColor=#d80073;strokeColor=#A50040;fontColor=#ffffff;" vertex="1" parent="EcIhPKk2g2EHWNbsYNkr-67">
          <mxGeometry width="160" height="88.5" as="geometry" />
        </mxCell>
        <mxCell id="EcIhPKk2g2EHWNbsYNkr-24" value="&lt;font style=&quot;font-size: 36px;&quot; face=&quot;Georgia&quot;&gt;END&lt;/font&gt;" style="text;html=1;align=center;verticalAlign=middle;whiteSpace=wrap;rounded=0;fillColor=#d80073;strokeColor=#A50040;fontColor=#ffffff;" vertex="1" parent="EcIhPKk2g2EHWNbsYNkr-67">
          <mxGeometry x="60" y="29.25" width="60" height="30" as="geometry" />
        </mxCell>
        <mxCell id="EcIhPKk2g2EHWNbsYNkr-69" style="edgeStyle=orthogonalEdgeStyle;rounded=0;orthogonalLoop=1;jettySize=auto;html=1;exitX=0.25;exitY=1;exitDx=0;exitDy=0;entryX=0.5;entryY=0;entryDx=0;entryDy=0;entryPerimeter=0;" edge="1" parent="WIyWlLk6GJQsqaUBKTNV-1" source="EcIhPKk2g2EHWNbsYNkr-44" target="EcIhPKk2g2EHWNbsYNkr-53">
          <mxGeometry relative="1" as="geometry" />
        </mxCell>
        <mxCell id="EcIhPKk2g2EHWNbsYNkr-71" style="edgeStyle=orthogonalEdgeStyle;rounded=0;orthogonalLoop=1;jettySize=auto;html=1;exitX=0;exitY=1;exitDx=0;exitDy=-15;exitPerimeter=0;entryX=0.145;entryY=0;entryDx=0;entryDy=4.35;entryPerimeter=0;" edge="1" parent="WIyWlLk6GJQsqaUBKTNV-1" source="EcIhPKk2g2EHWNbsYNkr-51" target="EcIhPKk2g2EHWNbsYNkr-53">
          <mxGeometry relative="1" as="geometry" />
        </mxCell>
        <mxCell id="EcIhPKk2g2EHWNbsYNkr-73" value="" style="group" vertex="1" connectable="0" parent="WIyWlLk6GJQsqaUBKTNV-1">
          <mxGeometry x="1045" y="780" width="170" height="100" as="geometry" />
        </mxCell>
        <mxCell id="EcIhPKk2g2EHWNbsYNkr-7" value="" style="rounded=1;whiteSpace=wrap;html=1;" vertex="1" parent="EcIhPKk2g2EHWNbsYNkr-73">
          <mxGeometry width="170" height="100" as="geometry" />
        </mxCell>
        <mxCell id="EcIhPKk2g2EHWNbsYNkr-33" value="&lt;font face=&quot;Georgia&quot; style=&quot;font-size: 14px;&quot;&gt;Application captures an image after the query is recorded&lt;/font&gt;" style="text;html=1;align=center;verticalAlign=middle;whiteSpace=wrap;rounded=0;fillColor=#dae8fc;strokeColor=#6c8ebf;" vertex="1" parent="EcIhPKk2g2EHWNbsYNkr-73">
          <mxGeometry y="5" width="170" height="90" as="geometry" />
        </mxCell>
        <mxCell id="EcIhPKk2g2EHWNbsYNkr-77" value="" style="group;fillColor=#6a00ff;fontColor=#ffffff;strokeColor=#3700CC;" vertex="1" connectable="0" parent="WIyWlLk6GJQsqaUBKTNV-1">
          <mxGeometry x="35" y="21.5" width="150" height="75" as="geometry" />
        </mxCell>
        <mxCell id="EcIhPKk2g2EHWNbsYNkr-6" value="" style="shape=parallelogram;perimeter=parallelogramPerimeter;whiteSpace=wrap;html=1;fixedSize=1;fillColor=#6a00ff;fontColor=#ffffff;strokeColor=#3700CC;" vertex="1" parent="EcIhPKk2g2EHWNbsYNkr-77">
          <mxGeometry width="150" height="75" as="geometry" />
        </mxCell>
        <mxCell id="EcIhPKk2g2EHWNbsYNkr-23" value="&lt;font style=&quot;font-size: 36px;&quot; face=&quot;Georgia&quot;&gt;START&lt;/font&gt;" style="text;html=1;align=center;verticalAlign=middle;whiteSpace=wrap;rounded=0;fillColor=#6a00ff;fontColor=#ffffff;strokeColor=#3700CC;" vertex="1" parent="EcIhPKk2g2EHWNbsYNkr-77">
          <mxGeometry x="45" y="35" width="60" height="30" as="geometry" />
        </mxCell>
        <mxCell id="EcIhPKk2g2EHWNbsYNkr-78" value="" style="group" vertex="1" connectable="0" parent="WIyWlLk6GJQsqaUBKTNV-1">
          <mxGeometry x="15" y="370" width="230" height="130" as="geometry" />
        </mxCell>
        <mxCell id="EcIhPKk2g2EHWNbsYNkr-1" value="" style="rounded=1;whiteSpace=wrap;html=1;" vertex="1" parent="EcIhPKk2g2EHWNbsYNkr-78">
          <mxGeometry width="230" height="130" as="geometry" />
        </mxCell>
        <mxCell id="EcIhPKk2g2EHWNbsYNkr-26" value="&lt;font face=&quot;Georgia&quot; style=&quot;font-size: 18px;&quot;&gt;User provides input query through speech&lt;/font&gt;" style="text;html=1;align=center;verticalAlign=middle;whiteSpace=wrap;rounded=0;container=1;" vertex="1" parent="EcIhPKk2g2EHWNbsYNkr-78">
          <mxGeometry x="8.214285714285714" y="11.818181818181818" width="213.57142857142856" height="106.36363636363637" as="geometry" />
        </mxCell>
        <mxCell id="EcIhPKk2g2EHWNbsYNkr-79" value="" style="group" vertex="1" connectable="0" parent="WIyWlLk6GJQsqaUBKTNV-1">
          <mxGeometry x="30" y="210" width="190" height="110" as="geometry" />
        </mxCell>
        <mxCell id="vQw6qridugHL2fAcngwt-1" value="" style="rounded=1;whiteSpace=wrap;html=1;" vertex="1" parent="EcIhPKk2g2EHWNbsYNkr-79">
          <mxGeometry width="189.99999999999997" height="110" as="geometry" />
        </mxCell>
        <mxCell id="EcIhPKk2g2EHWNbsYNkr-25" value="&lt;font style=&quot;font-size: 18px;&quot; face=&quot;Georgia&quot;&gt;Starts a continues video stream &amp;amp; STARTS contiues mic usage&amp;nbsp;&lt;/font&gt;" style="text;html=1;align=center;verticalAlign=middle;whiteSpace=wrap;rounded=0;" vertex="1" parent="EcIhPKk2g2EHWNbsYNkr-79">
          <mxGeometry width="189.99999999999997" height="110" as="geometry" />
        </mxCell>
        <mxCell id="EcIhPKk2g2EHWNbsYNkr-80" value="" style="group" vertex="1" connectable="0" parent="WIyWlLk6GJQsqaUBKTNV-1">
          <mxGeometry x="15" y="570" width="225" height="190" as="geometry" />
        </mxCell>
        <mxCell id="EcIhPKk2g2EHWNbsYNkr-2" value="" style="rounded=1;whiteSpace=wrap;html=1;" vertex="1" parent="EcIhPKk2g2EHWNbsYNkr-80">
          <mxGeometry width="225" height="190" as="geometry" />
        </mxCell>
        <mxCell id="EcIhPKk2g2EHWNbsYNkr-29" value="&lt;font face=&quot;Georgia&quot; style=&quot;font-size: 18px;&quot;&gt;Speech is converted to text using speech-to-text engine&lt;/font&gt;" style="text;html=1;align=center;verticalAlign=middle;whiteSpace=wrap;rounded=0;" vertex="1" parent="EcIhPKk2g2EHWNbsYNkr-80">
          <mxGeometry x="6.617647058823529" width="211.76470588235293" height="190" as="geometry" />
        </mxCell>
        <mxCell id="EcIhPKk2g2EHWNbsYNkr-81" value="" style="group" vertex="1" connectable="0" parent="WIyWlLk6GJQsqaUBKTNV-1">
          <mxGeometry x="830" y="970" width="195" height="155" as="geometry" />
        </mxCell>
        <mxCell id="EcIhPKk2g2EHWNbsYNkr-65" value="" style="rhombus;whiteSpace=wrap;html=1;fillColor=#e1d5e7;strokeColor=#9673a6;" vertex="1" parent="EcIhPKk2g2EHWNbsYNkr-81">
          <mxGeometry width="195" height="155" as="geometry" />
        </mxCell>
        <mxCell id="EcIhPKk2g2EHWNbsYNkr-34" value="&lt;font style=&quot;font-size: 20px;&quot; face=&quot;Georgia&quot;&gt;&lt;b style=&quot;&quot;&gt;vison MODELS&amp;nbsp;&lt;/b&gt;&lt;/font&gt;" style="text;html=1;align=center;verticalAlign=middle;whiteSpace=wrap;rounded=0;" vertex="1" parent="EcIhPKk2g2EHWNbsYNkr-81">
          <mxGeometry x="60" y="62.5" width="60" height="30" as="geometry" />
        </mxCell>
      </root>
    </mxGraphModel>
  </diagram>
</mxfile>
